<?xml version="1.0" encoding="utf-8"?>
<!-- Generator: Adobe Illustrator 16.0.0, SVG Export Plug-In . SVG Version: 6.00 Build 0)  -->
<!DOCTYPE svg PUBLIC "-//W3C//DTD SVG 1.1//EN" "http://www.w3.org/Graphics/SVG/1.1/DTD/svg11.dtd">
<svg version="1.1" id="bubble_1_" xmlns="http://www.w3.org/2000/svg" xmlns:xlink="http://www.w3.org/1999/xlink" x="0px" y="0px"
	 width="64px" height="56px" viewBox="0 0 64 56" enable-background="new 0 0 64 56" xml:space="preserve">
<g id="bubble">
	<g>
		<path fill-rule="evenodd" clip-rule="evenodd" fill="#333333" d="M32,9.999c-11.926,0-22,6.411-22,13.999c0,0.553,0.447,1,1,1
			s1-0.447,1-1c0-6.392,9.346-12,20-12c0.553,0,1-0.446,1-1C33,10.445,32.553,9.999,32,9.999z M32-0.002c-17.674,0-32,10.746-32,24
			c0,8.255,5.559,15.531,14.016,19.853c0,0.054-0.016,0.09-0.016,0.147c0,3.586-2.678,7.446-3.856,9.473c0.002,0,0.004,0,0.004,0
			C10.055,53.689,10,53.933,10,54.187c0,1.001,0.811,1.813,1.813,1.813c0.188,0,0.518-0.051,0.51-0.026
			c6.25-1.023,12.139-6.766,13.506-8.431c1.998,0.292,4.059,0.457,6.172,0.457c17.672,0,32-10.746,32-24.001
			C64,10.744,49.672-0.002,32-0.002z M32,43.998c-1.834,0-3.715-0.139-5.592-0.413c-0.193-0.029-0.389-0.044-0.58-0.044
			c-1.188,0-2.327,0.529-3.092,1.464c-0.855,1.042-3.291,3.365-6.17,5.077c0.779-1.789,1.391-3.797,1.432-5.862
			c0.012-0.13,0.018-0.258,0.018-0.369c0-1.502-0.842-2.88-2.18-3.563C8.424,36.502,4,30.413,4,23.998c0-11.027,12.56-20,28-20
			c15.439,0,28,8.973,28,20S47.439,43.998,32,43.998z"/>
	</g>
</g>
</svg>
