<?xml version="1.0" encoding="utf-8"?>
<!-- Generator: Adobe Illustrator 16.0.0, SVG Export Plug-In . SVG Version: 6.00 Build 0)  -->
<!DOCTYPE svg PUBLIC "-//W3C//DTD SVG 1.1//EN" "http://www.w3.org/Graphics/SVG/1.1/DTD/svg11.dtd">
<svg version="1.1" id="settings_1_" xmlns="http://www.w3.org/2000/svg" xmlns:xlink="http://www.w3.org/1999/xlink" x="0px"
	 y="0px" width="64px" height="64px" viewBox="0 0 64 64" enable-background="new 0 0 64 64" xml:space="preserve">
<g id="settings">
	<g>
		<path fill-rule="evenodd" clip-rule="evenodd" fill="#333333" d="M60.783,25.356l-6.131-1.229
			c-0.309-0.886-0.67-1.746-1.072-2.577l3.471-5.207c1.059-1.586,0.848-3.7-0.5-5.047l-3.848-3.848
			c-0.773-0.774-1.797-1.173-2.83-1.173c-0.768,0-1.541,0.221-2.217,0.673l-5.207,3.471c-0.834-0.405-1.693-0.764-2.58-1.073
			l-1.227-6.13C38.27,1.344,36.627,0,34.721,0h-5.441c-1.906,0-3.549,1.344-3.922,3.216l-1.229,6.13
			c-0.887,0.31-1.746,0.671-2.578,1.073l-5.207-3.471c-0.678-0.452-1.449-0.673-2.217-0.673c-1.033,0-2.057,0.398-2.83,1.173
			l-3.848,3.848c-1.348,1.347-1.559,3.461-0.5,5.047l3.471,5.207c-0.404,0.834-0.764,1.693-1.072,2.579l-6.131,1.228
			C1.346,25.729,0,27.371,0,29.278v5.44c0,1.907,1.346,3.549,3.217,3.923l6.131,1.229c0.309,0.887,0.67,1.744,1.072,2.578
			l-3.471,5.206c-1.059,1.587-0.848,3.699,0.5,5.047l3.848,3.848c0.773,0.773,1.797,1.173,2.83,1.173
			c0.768,0,1.541-0.222,2.217-0.673l5.207-3.47c0.834,0.404,1.693,0.763,2.58,1.072l1.227,6.13c0.373,1.872,2.016,3.217,3.922,3.217
			h5.441c1.906,0,3.549-1.345,3.922-3.217l1.229-6.13c0.887-0.31,1.746-0.671,2.578-1.072l5.207,3.47
			c0.678,0.451,1.449,0.673,2.217,0.673c1.033,0,2.057-0.399,2.83-1.173l3.848-3.848c1.348-1.348,1.559-3.46,0.5-5.047l-3.471-5.206
			c0.404-0.835,0.764-1.694,1.072-2.58l6.131-1.227C62.654,38.268,64,36.626,64,34.719v-5.44C64,27.371,62.654,25.729,60.783,25.356
			z M53.867,35.946c-1.389,0.276-2.527,1.27-2.992,2.606c-0.258,0.738-0.557,1.455-0.895,2.15c-0.619,1.276-0.516,2.784,0.271,3.963
			l3.471,5.208l-3.848,3.846l-5.207-3.47c-0.668-0.444-1.441-0.672-2.219-0.672c-0.594,0-1.189,0.133-1.742,0.398
			c-0.693,0.337-1.41,0.639-2.15,0.896c-1.338,0.465-2.33,1.604-2.607,2.993l-1.229,6.133h-5.441l-1.227-6.133
			c-0.277-1.389-1.27-2.528-2.607-2.993c-0.738-0.258-1.455-0.557-2.15-0.895c-0.553-0.268-1.148-0.4-1.744-0.4
			c-0.777,0-1.551,0.228-2.219,0.672l-5.207,3.47l-3.848-3.846l3.471-5.208c0.785-1.179,0.889-2.685,0.273-3.96
			c-0.336-0.693-0.639-1.41-0.896-2.151c-0.465-1.337-1.604-2.33-2.992-2.607l-6.131-1.229L4,29.278l6.133-1.227
			c1.389-0.277,2.527-1.271,2.992-2.608c0.258-0.738,0.557-1.455,0.895-2.15c0.619-1.274,0.516-2.783-0.271-3.963l-3.471-5.206
			l3.848-3.849l5.207,3.472c0.668,0.444,1.441,0.672,2.219,0.672c0.594,0,1.189-0.134,1.742-0.399
			c0.693-0.336,1.41-0.638,2.15-0.896c1.338-0.465,2.33-1.603,2.607-2.991L29.279,4l5.441-0.002l1.227,6.134
			c0.277,1.389,1.27,2.526,2.607,2.991c0.738,0.259,1.455,0.557,2.15,0.895c0.553,0.268,1.148,0.401,1.744,0.401
			c0.777,0,1.551-0.228,2.219-0.672l5.207-3.472l3.848,3.849l-3.471,5.206c-0.785,1.18-0.889,2.687-0.273,3.962
			c0.336,0.693,0.639,1.409,0.896,2.15c0.465,1.338,1.604,2.33,2.992,2.607l6.131,1.229L60,34.719L53.867,35.946z M32,17.999
			c-7.73,0-14,6.269-14,13.999s6.27,14.001,14,14.001s14-6.271,14-14.001S39.73,17.999,32,17.999z M32,44.248
			c-6.764,0-12.25-5.486-12.25-12.25c0-6.763,5.486-12.249,12.25-12.249s12.25,5.486,12.25,12.249
			C44.25,38.762,38.764,44.248,32,44.248z M32,23.998c-4.42,0-8,3.581-8,8c0,4.421,3.58,8.001,8,8.001s8-3.58,8-8.001
			C40,27.579,36.42,23.998,32,23.998z M32,37.998c-3.313,0-6-2.688-6-6c0-3.312,2.688-5.999,6-5.999s6,2.688,6,5.999
			C38,35.311,35.313,37.998,32,37.998z"/>
	</g>
</g>
</svg>
